v 5.88231e-39 100.0 5.88009e-39
v 5.88231e-39 -100.0 5.88009e-39
v 58.7785 80.9017 5.88009e-39
v 41.5627 80.9017 41.5626
v 6.75001e-05 80.9017 58.7785
v -41.5626 80.9017 41.5627
v -58.7785 80.9017 0.000135
v -41.5628 80.9017 -41.5625
v -0.000195493 80.9017 -58.7785
v 41.5625 80.9017 -41.5628
v 95.1056 30.9018 5.88009e-39
v 67.2499 30.9018 67.2498
v 0.000109218 30.9018 95.1056
v -67.2497 30.9018 67.2499
v -95.1056 30.9018 0.000218435
v -67.25 30.9018 -67.2496
v -0.000316315 30.9018 -95.1056
v 67.2496 30.9018 -67.2501
v 95.1057 -30.9016 5.88009e-39
v 67.2499 -30.9016 67.2498
v 0.000109218 -30.9016 95.1057
v -67.2498 -30.9016 67.25
v -95.1057 -30.9016 0.000218435
v -67.2501 -30.9016 -67.2497
v -0.000316315 -30.9016 -95.1057
v 67.2496 -30.9016 -67.2502
v 58.7787 -80.9016 5.88009e-39
v 41.5628 -80.9016 41.5628
v 6.75003e-05 -80.9016 58.7787
v -41.5627 -80.9016 41.5629
v -58.7787 -80.9016 0.000135001
v -41.5629 -80.9016 -41.5627
v -0.000195494 -80.9016 -58.7787
v 41.5626 -80.9016 -41.563

vn 5.88231e-41 1.0 5.88009e-41
vn 5.88231e-41 -1.0 5.88009e-41
vn 0.5877850844899974 0.8090171162905557 5.880090845221959e-41
vn 0.4156271493568898 0.8090172907228428 0.4156261493565305
vn 6.750010970265358e-07 0.8090171162903714 0.5877850844898636
vn -0.4156261493565305 0.8090172907228428 0.4156271493568898
vn -0.5877850844894619 0.8090171162898185 1.3500001940518618e-06
vn -0.41562814935641795 0.8090172907212247 -0.41562514935533984
vn -1.954930281003828e-06 0.8090171162890097 -0.5877850844888742
vn 0.41562514935533984 0.8090172907212247 -0.41562814935641795
vn 0.9510561714469115 0.30901805570668994 5.880091060004111e-41
vn 0.672498801838506 0.3090179089434058 0.6724978018388006
vn 1.0921801968866904e-06 0.30901805570650565 0.9510561714463442
vn -0.672497254091703 0.30901811675726415 0.6724992540924586
vn -0.9510561714446425 0.3090180557059527 2.18435039376767e-06
vn -0.6725002540908189 0.3090181167563371 -0.6724962540893077
vn -3.16315057020538e-06 0.309018055705144 -0.9510561714421536
vn 0.672495801835355 0.3090179089415517 -0.6725008018338816
vn 0.9510568547236989 -0.3090159527970443 5.880089101801759e-41
vn 0.6724992174657708 -0.3090160999263979 0.6724982174654475
vn 1.0921798331661613e-06 -0.30901595279685995 0.9510568547231317
vn -0.6724977652108961 -0.3090158921133004 0.6724997652101979
vn -0.95105685472143 -0.30901595279630706 2.184349666329942e-06
vn -0.6725007652078313 -0.30901589211237335 -0.6724967652092279
vn -3.163149516805216e-06 -0.3090159527954983 -0.951056854718941
vn 0.6724957652062145 -0.30901589211082825 -0.6725017652041198
vn 0.5877868690337528 -0.8090158197411828 5.880088689842885e-41
vn 0.4156279673682184 -0.8090159364825433 0.4156279673682184
vn 6.750028496007905e-07 -0.8090158197409985 0.5877868690336189
vn -0.4156269673678812 -0.8090159364817342 0.41562896736772414
vn -0.5877868690332172 -0.8090158197404456 1.3500096991997671e-06
vn -0.4156289673677242 -0.8090159364817343 -0.41562696736788124
vn -1.9549395644113413e-06 -0.8090158197396369 -0.5877868690326297
vn 0.41562596736671287 -0.8090159364793073 -0.4156299673663988

f 1//1 4//4 3//3
f 1//1 5//5 4//4
f 1//1 6//6 5//5
f 1//1 7//7 6//6
f 1//1 8//8 7//7
f 1//1 9//9 8//8
f 1//1 10//10 9//9
f 1//1 3//3 10//10
f 3//3 4//4 12//12 11//11
f 4//4 5//5 13//13 12//12
f 5//5 6//6 14//14 13//13
f 6//6 7//7 15//15 14//14
f 7//7 8//8 16//16 15//15
f 8//8 9//9 17//17 16//16
f 9//9 10//10 18//18 17//17
f 10//10 3//3 11//11 18//18
f 11//11 12//12 20//20 19//19
f 12//12 13//13 21//21 20//20
f 13//13 14//14 22//22 21//21
f 14//14 15//15 23//23 22//22
f 15//15 16//16 24//24 23//23
f 16//16 17//17 25//25 24//24
f 17//17 18//18 26//26 25//25
f 18//18 11//11 19//19 26//26
f 19//19 20//20 28//28 27//27
f 20//20 21//21 29//29 28//28
f 21//21 22//22 30//30 29//29
f 22//22 23//23 31//31 30//30
f 23//23 24//24 32//32 31//31
f 24//24 25//25 33//33 32//32
f 25//25 26//26 34//34 33//33
f 26//26 19//19 27//27 34//34
f 2//2 27//27 28//28
f 2//2 28//28 29//29
f 2//2 29//29 30//30
f 2//2 30//30 31//31
f 2//2 31//31 32//32
f 2//2 32//32 33//33
f 2//2 33//33 34//34
f 2//2 34//34 27//27

