v 5.88231e-39 100.0 5.88009e-39
v 5.88231e-39 -100.0 5.88009e-39
v 43.3883 90.0969 5.88009e-39
v 37.5754 90.0969 21.6942
v 21.6942 90.0969 37.5754
v 5.49987e-05 90.0969 43.3883
v -21.6941 90.0969 37.5754
v -37.5754 90.0969 21.6942
v -43.3883 90.0969 0.000109997
v -37.5755 90.0969 -21.6941
v -21.6943 90.0969 -37.5753
v -0.000164996 90.0969 -43.3883
v 21.694 90.0969 -37.5755
v 37.5753 90.0969 -21.6943
v 78.1831 62.349 5.88009e-39
v 67.7086 62.349 39.0915
v 39.0916 62.349 67.7085
v 9.91042e-05 62.349 78.1831
v -39.0914 62.349 67.7086
v -67.7085 62.349 39.0917
v -78.1831 62.349 0.000198208
v -67.7087 62.349 -39.0914
v -39.0918 62.349 -67.7084
v -0.000297313 62.349 -78.1831
v 39.0913 62.349 -67.7087
v 67.7084 62.349 -39.0919
v 97.4928 22.2522 5.88009e-39
v 84.4312 22.2522 48.7463
v 48.7465 22.2522 84.4312
v 0.000123581 22.2522 97.4928
v -48.7462 22.2522 84.4313
v -84.4311 22.2522 48.7465
v -97.4928 22.2522 0.000247162
v -84.4314 22.2522 -48.7461
v -48.7467 22.2522 -84.4311
v -0.000370743 22.2522 -97.4928
v 48.7461 22.2522 -84.4314
v 84.431 22.2522 -48.7468
v 97.4928 -22.252 5.88009e-39
v 84.4313 -22.252 48.7464
v 48.7465 -22.252 84.4312
v 0.000123581 -22.252 97.4928
v -48.7463 -22.252 84.4313
v -84.4312 -22.252 48.7466
v -97.4928 -22.252 0.000247162
v -84.4314 -22.252 -48.7462
v -48.7467 -22.252 -84.4311
v -0.000370743 -22.252 -97.4928
v 48.7461 -22.252 -84.4314
v 84.431 -22.252 -48.7468
v 78.1833 -62.3488 5.88009e-39
v 67.7087 -62.3488 39.0916
v 39.0917 -62.3488 67.7087
v 9.91044e-05 -62.3488 78.1833
v -39.0915 -62.3488 67.7087
v -67.7086 -62.3488 39.0918
v -78.1833 -62.3488 0.000198209
v -67.7088 -62.3488 -39.0914
v -39.0918 -62.3488 -67.7086
v -0.000297313 -62.3488 -78.1833
v 39.0914 -62.3488 -67.7088
v 67.7085 -62.3488 -39.0919
v 43.3886 -90.0968 5.88009e-39
v 37.5756 -90.0968 21.6943
v 21.6943 -90.0968 37.5756
v 5.4999e-05 -90.0968 43.3886
v -21.6942 -90.0968 37.5756
v -37.5756 -90.0968 21.6944
v -43.3886 -90.0968 0.000109998
v -37.5757 -90.0968 -21.6942
v -21.6944 -90.0968 -37.5755
v -0.000164997 -90.0968 -43.3886
v 21.6941 -90.0968 -37.5757
v 37.5755 -90.0968 -21.6945

vn 5.88231e-41 1.0 5.88009e-41
vn 5.88231e-41 -1.0 5.88009e-41
vn 0.4338830875033805 0.900969181702978 5.880091185867509e-41
vn 0.3757539927026696 0.900968982502732 0.21694199578687798
vn 0.21694199578687798 0.900968982502732 0.3757539927026696
vn 5.499871109185786e-07 0.9009691817028418 0.4338830875033149
vn -0.21694104285041593 0.9009691779603506 0.3757540742193278
vn -0.3757539927026696 0.900968982502732 0.21694199578687798
vn -0.433883087503118 0.900969181702433 1.0999702218358514e-06
vn -0.3757549330278891 0.9009688394171846 -0.2169409613338566
vn -0.21694303023979955 0.9009691255865457 -0.3757530523764095
vn -1.6499603327535374e-06 0.9009691817017516 -0.43388308750278987
vn 0.21694000839709704 0.9009690348738091 -0.37575501454434956
vn 0.3757530523764095 0.9009691255865457 -0.21694303023979955
vn 0.7818311983267543 0.6234901581604567 5.880091491600058e-41
vn 0.6770860782979001 0.6234900721000843 0.390915045205223
vn 0.39091615707385713 0.623490250524356 0.6770852720593492
vn 9.910422513967377e-07 0.6234901581601505 0.7818311983263704
vn -0.39091419801920085 0.6234903158315934 0.6770863429808823
vn -0.677085007375487 0.6234900067916767 0.39091700425825904
vn -0.7818311983252185 0.623490158159232 1.9820805027895404e-06
vn -0.6770868845346907 0.6234898936747187 -0.3909139333364754
vn -0.3909181161261528 0.6234901852140219 -0.6770842011346626
vn -2.973130754179547e-06 0.6234901581577011 -0.7818311983232988
vn 0.3909130861498263 0.623490137405395 -0.6770871492171594
vn 0.6770839364499204 0.6234899414801721 -0.3909189633089343
vn 0.9749276852602465 0.22252192816236743 5.880088101707944e-41
vn 0.8443124347378511 0.22252211457700008 0.48746325099562376
vn 0.48746477575333685 0.22252189763405378 0.8443116115943737
vn 1.2358096010377638e-06 0.22252192816219749 0.9749276852595019
vn -0.4874620770441186 0.2225220351699442 0.8443131334449677
vn -0.8443113244562397 0.22252208551191605 0.48746518732559546
vn -0.9749276852572686 0.22252192816168773 2.4716192020698656e-06
vn -0.8443138321500048 0.22252195576252834 -0.4874609030925384
vn -0.4874667120793339 0.2225218685681647 -0.8443105013106826
vn -3.7074288030906434e-06 0.22252192816083816 -0.9749276852535463
vn 0.4874609030925384 0.22252195576252834 -0.8443138321500048
vn 0.8443098025970139 0.22252194797348454 -0.48746788602807173
vn 0.9749281191440229 -0.22252002719372913 5.88009071859417e-41
vn 0.8443126860571615 -0.22251991725987824 0.4874638187451434
vn 0.48746499269558086 -0.22251999666564912 0.8443119873484072
vn 1.2358101510249525e-06 -0.2225200271935592 0.9749281191432785
vn -0.4874630563658439 -0.22252002573021457 0.8443130976287734
vn -0.8443115757757553 -0.22251988819491025 0.4874657550728929
vn -0.974928119141045 -0.22252002719304947 2.471620302044243e-06
vn -0.8443137963346506 -0.22251994632374503 -0.4874618824144589
vn -0.4874669290223829 -0.22251996759998247 -0.8443108770641237
vn -3.7074304530522087e-06 -0.22252002719219985 -0.9749281191373226
vn 0.48746112003317216 -0.2225200547936788 -0.8443142079052226
vn 0.8443101783504122 -0.22252004700469463 -0.487468102971798
vn 0.7818329507316254 -0.6234879607099721 5.880089629457343e-41
vn 0.6770871994804132 -0.62348818368931 0.3909161151699637
vn 0.3909169623543075 -0.6234879399574909 0.6770869347958542
vn 9.910439375473952e-07 -0.623487960709666 0.7818329507312416
vn -0.3909152679846265 -0.6234884274207917 0.6770874641646055
vn -0.6770861285570013 -0.6234881183804533 0.39091807422284
vn -0.7818329507300896 -0.6234879607087473 1.9820898750917437e-06
vn -0.6770882704006714 -0.6234882489950698 -0.39091415611472674
vn -0.39091807422284 -0.6234881183804533 -0.6770861285570013
vn -2.9731298126306305e-06 -0.6234879607072165 -0.7818329507281699
vn 0.39091415611472674 -0.6234882489950698 -0.6770882704006714
vn 0.6770853223163882 -0.623488296802322 -0.3909191860912591
vn 0.4338859136523729 -0.900967820698412 5.880088829803638e-41
vn 0.3757559673451169 -0.9009679217018366 0.21694298114667948
vn 0.2169429811466795 -0.9009679217018367 0.37575596734511696
vn 5.499898905464396e-07 -0.9009678206982755 0.4338859136523073
vn -0.2169420282107093 -0.9009681171600996 0.37575604886256825
vn -0.375755885827343 -0.9009677262428 0.21694393408202955
vn -0.4338859136521104 -0.9009678206978667 1.09997978109238e-06
vn -0.37575690766958764 -0.9009677786155761 -0.2169419466933568
vn -0.2169440155999024 -0.9009680647863636 -0.3757550270196056
vn -1.6499696716373225e-06 -0.9009678206971855 -0.4338859136517823
vn 0.2169409937570891 -0.900967974072845 -0.37575698918684125
vn 0.3757549455016339 -0.9009678693263327 -0.2169449685349549

f 3//3 4//4 16//16 15//15
f 4//4 5//5 17//17 16//16
f 5//5 6//6 18//18 17//17
f 6//6 7//7 19//19 18//18
f 7//7 8//8 20//20 19//19
f 8//8 9//9 21//21 20//20
f 9//9 10//10 22//22 21//21
f 10//10 11//11 23//23 22//22
f 11//11 12//12 24//24 23//23
f 12//12 13//13 25//25 24//24
f 13//13 14//14 26//26 25//25
f 14//14 3//3 15//15 26//26
f 15//15 16//16 28//28 27//27
f 16//16 17//17 29//29 28//28
f 17//17 18//18 30//30 29//29
f 18//18 19//19 31//31 30//30
f 19//19 20//20 32//32 31//31
f 20//20 21//21 33//33 32//32
f 21//21 22//22 34//34 33//33
f 22//22 23//23 35//35 34//34
f 23//23 24//24 36//36 35//35
f 24//24 25//25 37//37 36//36
f 25//25 26//26 38//38 37//37
f 26//26 15//15 27//27 38//38
f 27//27 28//28 40//40 39//39
f 28//28 29//29 41//41 40//40
f 29//29 30//30 42//42 41//41
f 30//30 31//31 43//43 42//42
f 31//31 32//32 44//44 43//43
f 32//32 33//33 45//45 44//44
f 33//33 34//34 46//46 45//45
f 34//34 35//35 47//47 46//46
f 35//35 36//36 48//48 47//47
f 36//36 37//37 49//49 48//48
f 37//37 38//38 50//50 49//49
f 38//38 27//27 39//39 50//50
f 39//39 40//40 52//52 51//51
f 40//40 41//41 53//53 52//52
f 41//41 42//42 54//54 53//53
f 42//42 43//43 55//55 54//54
f 43//43 44//44 56//56 55//55
f 44//44 45//45 57//57 56//56
f 45//45 46//46 58//58 57//57
f 46//46 47//47 59//59 58//58
f 47//47 48//48 60//60 59//59
f 48//48 49//49 61//61 60//60
f 49//49 50//50 62//62 61//61
f 50//50 39//39 51//51 62//62
f 51//51 52//52 64//64 63//63
f 52//52 53//53 65//65 64//64
f 53//53 54//54 66//66 65//65
f 54//54 55//55 67//67 66//66
f 55//55 56//56 68//68 67//67
f 56//56 57//57 69//69 68//68
f 57//57 58//58 70//70 69//69
f 58//58 59//59 71//71 70//70
f 59//59 60//60 72//72 71//71
f 60//60 61//61 73//73 72//72
f 61//61 62//62 74//74 73//73
f 62//62 51//51 63//63 74//74
f 1//1 4//4 3//3
f 2//2 63//63 64//64
f 1//1 5//5 4//4
f 2//2 64//64 65//65
f 1//1 6//6 5//5
f 2//2 65//65 66//66
f 1//1 7//7 6//6
f 2//2 66//66 67//67
f 1//1 8//8 7//7
f 2//2 67//67 68//68
f 1//1 9//9 8//8
f 2//2 68//68 69//69
f 1//1 10//10 9//9
f 2//2 69//69 70//70
f 1//1 11//11 10//10
f 2//2 70//70 71//71
f 1//1 12//12 11//11
f 2//2 71//71 72//72
f 1//1 13//13 12//12
f 2//2 72//72 73//73
f 1//1 14//14 13//13
f 2//2 73//73 74//74
f 1//1 3//3 14//14
f 2//2 74//74 63//63

